<svg width="49" height="41" viewBox="0 0 49 41" fill="none" xmlns="http://www.w3.org/2000/svg">
<rect x="1.5" y="1.5" width="46" height="38" rx="3.5" stroke="white" stroke-width="3"/>
<line x1="10.6052" y1="1.00394" x2="10.5001" y2="41.0039" stroke="white" stroke-width="3"/>
<line y1="9.5" x2="11.6071" y2="9.5" stroke="white" stroke-width="3"/>
<line y1="16.5" x2="11.6071" y2="16.5" stroke="white" stroke-width="3"/>
<line y1="32.5" x2="11.6071" y2="32.5" stroke="white" stroke-width="3"/>
<line y1="24.5" x2="11.6071" y2="24.5" stroke="white" stroke-width="3"/>
<line x1="37" y1="9.5" x2="48.6071" y2="9.5" stroke="white" stroke-width="3"/>
<line x1="37" y1="16.5" x2="48.6071" y2="16.5" stroke="white" stroke-width="3"/>
<line x1="37" y1="32.5" x2="48.6071" y2="32.5" stroke="white" stroke-width="3"/>
<line x1="37" y1="24.5" x2="48.6071" y2="24.5" stroke="white" stroke-width="3"/>
<line x1="38.5" x2="38.5" y2="40" stroke="white" stroke-width="3"/>
<mask id="path-12-outside-1_207_37711" maskUnits="userSpaceOnUse" x="16" y="14" width="17" height="13" fill="black">
<rect fill="white" x="16" y="14" width="17" height="13"/>
<path d="M17.624 26C17.4187 26 17.246 25.93 17.106 25.79C16.9753 25.65 16.91 25.482 16.91 25.286C16.91 25.0807 16.9753 24.9127 17.106 24.782L21.082 20.134C21.362 19.8073 21.5767 19.4993 21.726 19.21C21.8847 18.9207 21.964 18.6453 21.964 18.384C21.964 17.9733 21.894 17.6187 21.754 17.32C21.614 17.0213 21.4133 16.7927 21.152 16.634C20.8907 16.466 20.578 16.382 20.214 16.382C19.8593 16.382 19.5373 16.4753 19.248 16.662C18.968 16.8393 18.744 17.082 18.576 17.39C18.4173 17.6887 18.338 18.02 18.338 18.384C18.338 18.5707 18.268 18.734 18.128 18.874C17.9973 19.014 17.8293 19.084 17.624 19.084C17.428 19.084 17.26 19.014 17.12 18.874C16.98 18.734 16.91 18.5707 16.91 18.384C16.91 17.7493 17.0547 17.1847 17.344 16.69C17.6333 16.186 18.0253 15.7893 18.52 15.5C19.024 15.2107 19.5887 15.066 20.214 15.066C20.8487 15.066 21.3993 15.2013 21.866 15.472C22.3327 15.7427 22.692 16.1253 22.944 16.62C23.2053 17.1147 23.336 17.7027 23.336 18.384C23.336 18.6827 23.2707 18.986 23.14 19.294C23.0187 19.602 22.86 19.896 22.664 20.176C22.4773 20.456 22.286 20.708 22.09 20.932L18.884 24.572H22.804C23.0093 24.572 23.182 24.6467 23.322 24.796C23.462 24.936 23.532 25.0993 23.532 25.286C23.532 25.482 23.462 25.65 23.322 25.79C23.182 25.93 23.0093 26 22.804 26H17.624ZM28.6965 26C28.0245 26 27.4178 25.846 26.8765 25.538C26.3445 25.2207 25.9198 24.7913 25.6025 24.25C25.2945 23.7087 25.1405 23.102 25.1405 22.43C25.1405 22.2247 25.2058 22.0567 25.3365 21.926C25.4671 21.786 25.6351 21.716 25.8405 21.716C26.0458 21.716 26.2185 21.786 26.3585 21.926C26.4985 22.0567 26.5685 22.2247 26.5685 22.43C26.5685 22.8313 26.6618 23.1953 26.8485 23.522C27.0351 23.8487 27.2871 24.1053 27.6045 24.292C27.9311 24.4787 28.2951 24.572 28.6965 24.572C29.1071 24.572 29.4711 24.4787 29.7885 24.292C30.1151 24.1053 30.3718 23.8487 30.5585 23.522C30.7451 23.1953 30.8385 22.8313 30.8385 22.43C30.8385 22.0193 30.7451 21.6553 30.5585 21.338C30.3718 21.0113 30.1151 20.7547 29.7885 20.568C29.4711 20.3813 29.1071 20.288 28.6965 20.288H26.3585C26.1531 20.288 25.9851 20.2227 25.8545 20.092C25.7238 19.952 25.6585 19.7793 25.6585 19.574V15.794C25.6585 15.5887 25.7238 15.416 25.8545 15.276C25.9851 15.136 26.1531 15.066 26.3585 15.066H31.0345C31.2305 15.066 31.3985 15.1407 31.5385 15.29C31.6785 15.43 31.7485 15.598 31.7485 15.794C31.7485 15.9807 31.6785 16.144 31.5385 16.284C31.4078 16.424 31.2398 16.494 31.0345 16.494H27.0725V18.86H28.6965C29.3778 18.86 29.9845 19.0187 30.5165 19.336C31.0578 19.644 31.4825 20.0687 31.7905 20.61C32.1078 21.142 32.2665 21.7487 32.2665 22.43C32.2665 23.102 32.1078 23.7087 31.7905 24.25C31.4825 24.7913 31.0578 25.2207 30.5165 25.538C29.9845 25.846 29.3778 26 28.6965 26Z"/>
</mask>
<path d="M17.624 26C17.4187 26 17.246 25.93 17.106 25.79C16.9753 25.65 16.91 25.482 16.91 25.286C16.91 25.0807 16.9753 24.9127 17.106 24.782L21.082 20.134C21.362 19.8073 21.5767 19.4993 21.726 19.21C21.8847 18.9207 21.964 18.6453 21.964 18.384C21.964 17.9733 21.894 17.6187 21.754 17.32C21.614 17.0213 21.4133 16.7927 21.152 16.634C20.8907 16.466 20.578 16.382 20.214 16.382C19.8593 16.382 19.5373 16.4753 19.248 16.662C18.968 16.8393 18.744 17.082 18.576 17.39C18.4173 17.6887 18.338 18.02 18.338 18.384C18.338 18.5707 18.268 18.734 18.128 18.874C17.9973 19.014 17.8293 19.084 17.624 19.084C17.428 19.084 17.26 19.014 17.12 18.874C16.98 18.734 16.91 18.5707 16.91 18.384C16.91 17.7493 17.0547 17.1847 17.344 16.69C17.6333 16.186 18.0253 15.7893 18.52 15.5C19.024 15.2107 19.5887 15.066 20.214 15.066C20.8487 15.066 21.3993 15.2013 21.866 15.472C22.3327 15.7427 22.692 16.1253 22.944 16.62C23.2053 17.1147 23.336 17.7027 23.336 18.384C23.336 18.6827 23.2707 18.986 23.14 19.294C23.0187 19.602 22.86 19.896 22.664 20.176C22.4773 20.456 22.286 20.708 22.09 20.932L18.884 24.572H22.804C23.0093 24.572 23.182 24.6467 23.322 24.796C23.462 24.936 23.532 25.0993 23.532 25.286C23.532 25.482 23.462 25.65 23.322 25.79C23.182 25.93 23.0093 26 22.804 26H17.624ZM28.6965 26C28.0245 26 27.4178 25.846 26.8765 25.538C26.3445 25.2207 25.9198 24.7913 25.6025 24.25C25.2945 23.7087 25.1405 23.102 25.1405 22.43C25.1405 22.2247 25.2058 22.0567 25.3365 21.926C25.4671 21.786 25.6351 21.716 25.8405 21.716C26.0458 21.716 26.2185 21.786 26.3585 21.926C26.4985 22.0567 26.5685 22.2247 26.5685 22.43C26.5685 22.8313 26.6618 23.1953 26.8485 23.522C27.0351 23.8487 27.2871 24.1053 27.6045 24.292C27.9311 24.4787 28.2951 24.572 28.6965 24.572C29.1071 24.572 29.4711 24.4787 29.7885 24.292C30.1151 24.1053 30.3718 23.8487 30.5585 23.522C30.7451 23.1953 30.8385 22.8313 30.8385 22.43C30.8385 22.0193 30.7451 21.6553 30.5585 21.338C30.3718 21.0113 30.1151 20.7547 29.7885 20.568C29.4711 20.3813 29.1071 20.288 28.6965 20.288H26.3585C26.1531 20.288 25.9851 20.2227 25.8545 20.092C25.7238 19.952 25.6585 19.7793 25.6585 19.574V15.794C25.6585 15.5887 25.7238 15.416 25.8545 15.276C25.9851 15.136 26.1531 15.066 26.3585 15.066H31.0345C31.2305 15.066 31.3985 15.1407 31.5385 15.29C31.6785 15.43 31.7485 15.598 31.7485 15.794C31.7485 15.9807 31.6785 16.144 31.5385 16.284C31.4078 16.424 31.2398 16.494 31.0345 16.494H27.0725V18.86H28.6965C29.3778 18.86 29.9845 19.0187 30.5165 19.336C31.0578 19.644 31.4825 20.0687 31.7905 20.61C32.1078 21.142 32.2665 21.7487 32.2665 22.43C32.2665 23.102 32.1078 23.7087 31.7905 24.25C31.4825 24.7913 31.0578 25.2207 30.5165 25.538C29.9845 25.846 29.3778 26 28.6965 26Z" fill="white"/>
<path d="M17.106 25.79L16.8866 25.9948L16.8939 26.0021L17.106 25.79ZM17.106 24.782L17.3181 24.9941L17.3264 24.9859L17.334 24.977L17.106 24.782ZM21.082 20.134L20.8542 19.9388L20.854 19.939L21.082 20.134ZM21.726 19.21L21.4629 19.0657L21.4594 19.0724L21.726 19.21ZM21.754 17.32L21.4824 17.4473H21.4824L21.754 17.32ZM21.152 16.634L20.9897 16.8864L20.9963 16.8904L21.152 16.634ZM19.248 16.662L19.4085 16.9155L19.4106 16.9141L19.248 16.662ZM18.576 17.39L18.3126 17.2463L18.3111 17.2493L18.576 17.39ZM18.128 18.874L17.9157 18.6617L17.9087 18.6693L18.128 18.874ZM17.12 18.874L16.9079 19.0861L16.9079 19.0861L17.12 18.874ZM17.344 16.69L17.603 16.8415L17.6042 16.8394L17.344 16.69ZM18.52 15.5L18.3706 15.2398L18.3685 15.241L18.52 15.5ZM21.866 15.472L22.0165 15.2125L21.866 15.472ZM22.944 16.62L22.6767 16.7562L22.6787 16.7601L22.944 16.62ZM23.14 19.294L22.8637 19.1768L22.8609 19.184L23.14 19.294ZM22.664 20.176L22.4182 20.0039L22.4144 20.0096L22.664 20.176ZM22.09 20.932L22.3151 21.1303L22.3158 21.1296L22.09 20.932ZM18.884 24.572L18.6589 24.3737L18.22 24.872H18.884V24.572ZM23.322 24.796L23.103 25.0013L23.1099 25.0081L23.322 24.796ZM23.322 25.79L23.1099 25.5779L23.1099 25.5779L23.322 25.79ZM17.624 25.7C17.4949 25.7 17.3996 25.6593 17.3181 25.5779L16.8939 26.0021C17.0924 26.2007 17.3424 26.3 17.624 26.3V25.7ZM17.3253 25.5853C17.2478 25.5023 17.21 25.408 17.21 25.286H16.61C16.61 25.556 16.7028 25.7977 16.8867 25.9947L17.3253 25.5853ZM17.21 25.286C17.21 25.1505 17.2502 25.062 17.3181 24.9941L16.8939 24.5699C16.7004 24.7633 16.61 25.0108 16.61 25.286H17.21ZM17.334 24.977L21.31 20.329L20.854 19.939L16.878 24.587L17.334 24.977ZM21.3098 20.3292C21.6004 19.9902 21.8298 19.663 21.9926 19.3476L21.4594 19.0724C21.3235 19.3357 21.1236 19.6245 20.8542 19.9388L21.3098 20.3292ZM21.989 19.3542C22.1657 19.0321 22.264 18.7073 22.264 18.384H21.664C21.664 18.5833 21.6036 18.8092 21.463 19.0658L21.989 19.3542ZM22.264 18.384C22.264 17.9398 22.1883 17.5397 22.0256 17.1927L21.4824 17.4473C21.5997 17.6976 21.664 18.0068 21.664 18.384H22.264ZM22.0256 17.1927C21.8626 16.8449 21.6236 16.5693 21.3077 16.3776L20.9963 16.8904C21.2031 17.016 21.3654 17.1978 21.4824 17.4473L22.0256 17.1927ZM21.3142 16.3816C20.9967 16.1775 20.6255 16.082 20.214 16.082V16.682C20.5305 16.682 20.7846 16.7545 20.9898 16.8864L21.3142 16.3816ZM20.214 16.082C19.8035 16.082 19.4247 16.191 19.0854 16.4099L19.4106 16.9141C19.65 16.7597 19.9152 16.682 20.214 16.682V16.082ZM19.0875 16.4086C18.7619 16.6148 18.5036 16.8963 18.3126 17.2463L18.8394 17.5337C18.9844 17.2677 19.1741 17.0639 19.4085 16.9154L19.0875 16.4086ZM18.3111 17.2493C18.1276 17.5945 18.038 17.9748 18.038 18.384H18.638C18.638 18.0652 18.707 17.7828 18.8409 17.5307L18.3111 17.2493ZM18.038 18.384C18.038 18.4859 18.0034 18.5743 17.9159 18.6619L18.3401 19.0861C18.5326 18.8937 18.638 18.6554 18.638 18.384H18.038ZM17.9087 18.6693C17.8392 18.7438 17.7529 18.784 17.624 18.784V19.384C17.9058 19.384 18.1555 19.2842 18.3473 19.0787L17.9087 18.6693ZM17.624 18.784C17.5085 18.784 17.4165 18.7462 17.3321 18.6619L16.9079 19.0861C17.1035 19.2818 17.3475 19.384 17.624 19.384V18.784ZM17.3321 18.6619C17.2446 18.5743 17.21 18.4859 17.21 18.384H16.61C16.61 18.6554 16.7154 18.8937 16.9079 19.0861L17.3321 18.6619ZM17.21 18.384C17.21 17.7967 17.3433 17.2854 17.603 16.8415L17.085 16.5385C16.766 17.084 16.61 17.702 16.61 18.384H17.21ZM17.6042 16.8394C17.8678 16.3801 18.2226 16.0215 18.6715 15.759L18.3685 15.241C17.828 15.5572 17.3988 15.9919 17.0838 16.5406L17.6042 16.8394ZM18.6694 15.7602C19.1245 15.4989 19.637 15.366 20.214 15.366V14.766C19.5404 14.766 18.9235 14.9224 18.3706 15.2398L18.6694 15.7602ZM20.214 15.366C20.8052 15.366 21.302 15.4917 21.7155 15.7315L22.0165 15.2125C21.4966 14.911 20.8921 14.766 20.214 14.766V15.366ZM21.7155 15.7315C22.1306 15.9723 22.4501 16.3114 22.6767 16.7562L23.2113 16.4838C22.9339 15.9392 22.5347 15.513 22.0165 15.2125L21.7155 15.7315ZM22.6787 16.7601C22.9128 17.2032 23.036 17.741 23.036 18.384H23.636C23.636 17.6643 23.4979 17.0262 23.2093 16.4799L22.6787 16.7601ZM23.036 18.384C23.036 18.6378 22.9807 18.9014 22.8638 19.1768L23.4162 19.4112C23.5607 19.0706 23.636 18.7275 23.636 18.384H23.036ZM22.8609 19.184C22.7485 19.4694 22.6012 19.7426 22.4182 20.004L22.9098 20.348C23.1188 20.0494 23.2889 19.7346 23.4191 19.404L22.8609 19.184ZM22.4144 20.0096C22.2341 20.2801 22.0506 20.5215 21.8642 20.7344L22.3158 21.1296C22.5214 20.8945 22.7206 20.6319 22.9136 20.3424L22.4144 20.0096ZM21.8649 20.7337L18.6589 24.3737L19.1091 24.7703L22.3151 21.1303L21.8649 20.7337ZM18.884 24.872H22.804V24.272H18.884V24.872ZM22.804 24.872C22.9267 24.872 23.0201 24.9126 23.1031 25.0012L23.5409 24.5908C23.3439 24.3808 23.092 24.272 22.804 24.272V24.872ZM23.1099 25.0081C23.1974 25.0957 23.232 25.1841 23.232 25.286H23.832C23.832 25.0146 23.7266 24.7763 23.5341 24.5839L23.1099 25.0081ZM23.232 25.286C23.232 25.4015 23.1942 25.4935 23.1099 25.5779L23.5341 26.0021C23.7298 25.8065 23.832 25.5625 23.832 25.286H23.232ZM23.1099 25.5779C23.0284 25.6593 22.9331 25.7 22.804 25.7V26.3C23.0856 26.3 23.3356 26.2007 23.5341 26.0021L23.1099 25.5779ZM22.804 25.7H17.624V26.3H22.804V25.7ZM26.8765 25.538L26.7228 25.7957L26.7281 25.7987L26.8765 25.538ZM25.6025 24.25L25.3417 24.3984L25.3437 24.4017L25.6025 24.25ZM25.3365 21.926L25.5487 22.1383L25.5558 22.1307L25.3365 21.926ZM26.3585 21.926L26.1462 22.1383L26.1538 22.1453L26.3585 21.926ZM26.8485 23.522L26.588 23.6708V23.6708L26.8485 23.522ZM27.6045 24.292L27.4524 24.5506L27.4556 24.5525L27.6045 24.292ZM29.7885 24.292L29.6396 24.0315L29.6364 24.0334L29.7885 24.292ZM30.5585 23.522L30.8189 23.6708L30.5585 23.522ZM30.5585 21.338L30.298 21.4869L30.2999 21.4901L30.5585 21.338ZM29.7885 20.568L29.6364 20.8266L29.6396 20.8285L29.7885 20.568ZM25.8545 20.092L25.635 20.2968L25.6423 20.3041L25.8545 20.092ZM25.8545 15.276L25.6352 15.0713L25.6352 15.0713L25.8545 15.276ZM31.5385 15.29L31.3195 15.4953L31.3263 15.5021L31.5385 15.29ZM31.5385 16.284L31.3262 16.0717L31.3192 16.0793L31.5385 16.284ZM27.0725 16.494V16.194H26.7725V16.494H27.0725ZM27.0725 18.86H26.7725V19.16H27.0725V18.86ZM30.5165 19.336L30.3628 19.5937L30.3681 19.5967L30.5165 19.336ZM31.7905 20.61L31.5297 20.7584L31.5328 20.7637L31.7905 20.61ZM31.7905 24.25L31.5316 24.0983L31.5297 24.1016L31.7905 24.25ZM30.5165 25.538L30.6668 25.7976L30.6682 25.7968L30.5165 25.538ZM28.6965 25.7C28.0723 25.7 27.5174 25.5575 27.0248 25.2773L26.7281 25.7987C27.3182 26.1345 27.9767 26.3 28.6965 26.3V25.7ZM27.0302 25.2804C26.5421 24.9893 26.1534 24.5966 25.8613 24.0983L25.3437 24.4017C25.6862 24.9861 26.1468 25.4521 26.7228 25.7956L27.0302 25.2804ZM25.8632 24.1016C25.583 23.6091 25.4405 23.0542 25.4405 22.43H24.8405C24.8405 23.1498 25.006 23.8083 25.3417 24.3984L25.8632 24.1016ZM25.4405 22.43C25.4405 22.2945 25.4807 22.206 25.5486 22.1381L25.1243 21.7139C24.9309 21.9073 24.8405 22.1548 24.8405 22.43H25.4405ZM25.5558 22.1307C25.6253 22.0562 25.7116 22.016 25.8405 22.016V21.416C25.5587 21.416 25.309 21.5158 25.1172 21.7213L25.5558 22.1307ZM25.8405 22.016C25.9695 22.016 26.0649 22.0567 26.1463 22.1381L26.5706 21.7139C26.3721 21.5153 26.1221 21.416 25.8405 21.416V22.016ZM26.1538 22.1453C26.2282 22.2148 26.2685 22.3011 26.2685 22.43H26.8685C26.8685 22.1482 26.7687 21.8985 26.5632 21.7067L26.1538 22.1453ZM26.2685 22.43C26.2685 22.8799 26.3737 23.2958 26.588 23.6708L27.1089 23.3732C26.9499 23.0949 26.8685 22.7827 26.8685 22.43H26.2685ZM26.588 23.6708C26.8 24.0419 27.0889 24.3368 27.4524 24.5506L27.7566 24.0334C27.4853 23.8739 27.2703 23.6555 27.1089 23.3732L26.588 23.6708ZM27.4556 24.5525C27.8307 24.7668 28.2465 24.872 28.6965 24.872V24.272C28.3437 24.272 28.0316 24.1906 27.7533 24.0315L27.4556 24.5525ZM28.6965 24.872C29.1543 24.872 29.572 24.7674 29.9406 24.5506L29.6364 24.0334C29.3703 24.1899 29.06 24.272 28.6965 24.272V24.872ZM29.9373 24.5525C30.3105 24.3392 30.6057 24.044 30.8189 23.6708L30.298 23.3732C30.1379 23.6533 29.9198 23.8714 29.6396 24.0315L29.9373 24.5525ZM30.8189 23.6708C31.0332 23.2958 31.1385 22.8799 31.1385 22.43H30.5385C30.5385 22.7827 30.457 23.0949 30.298 23.3732L30.8189 23.6708ZM31.1385 22.43C31.1385 21.9722 31.0339 21.5545 30.817 21.1859L30.2999 21.4901C30.4564 21.7562 30.5385 22.0665 30.5385 22.43H31.1385ZM30.8189 21.1892C30.6057 20.816 30.3105 20.5208 29.9373 20.3075L29.6396 20.8285C29.9198 20.9886 30.1379 21.2067 30.298 21.4868L30.8189 21.1892ZM29.9406 20.3094C29.572 20.0926 29.1543 19.988 28.6965 19.988V20.588C29.06 20.588 29.3703 20.6701 29.6364 20.8266L29.9406 20.3094ZM28.6965 19.988H26.3585V20.588H28.6965V19.988ZM26.3585 19.988C26.223 19.988 26.1345 19.9478 26.0666 19.8799L25.6423 20.3041C25.8358 20.4976 26.0833 20.588 26.3585 20.588V19.988ZM26.0738 19.8873C25.9989 19.8071 25.9585 19.7094 25.9585 19.574H25.3585C25.3585 19.8493 25.4487 20.0969 25.6352 20.2967L26.0738 19.8873ZM25.9585 19.574V15.794H25.3585V19.574H25.9585ZM25.9585 15.794C25.9585 15.6586 25.9989 15.5609 26.0738 15.4807L25.6352 15.0713C25.4487 15.2711 25.3585 15.5187 25.3585 15.794H25.9585ZM26.0738 15.4807C26.1433 15.4062 26.2296 15.366 26.3585 15.366V14.766C26.0767 14.766 25.827 14.8658 25.6352 15.0713L26.0738 15.4807ZM26.3585 15.366H31.0345V14.766H26.3585V15.366ZM31.0345 15.366C31.1435 15.366 31.2335 15.4033 31.3196 15.4952L31.7573 15.0848C31.5634 14.878 31.3174 14.766 31.0345 14.766V15.366ZM31.3263 15.5021C31.4107 15.5865 31.4485 15.6785 31.4485 15.794H32.0485C32.0485 15.5175 31.9462 15.2735 31.7506 15.0779L31.3263 15.5021ZM31.4485 15.794C31.4485 15.8959 31.4139 15.9843 31.3263 16.0719L31.7506 16.4961C31.9431 16.3037 32.0485 16.0654 32.0485 15.794H31.4485ZM31.3192 16.0793C31.2497 16.1538 31.1634 16.194 31.0345 16.194V16.794C31.3162 16.794 31.566 16.6942 31.7578 16.4887L31.3192 16.0793ZM31.0345 16.194H27.0725V16.794H31.0345V16.194ZM26.7725 16.494V18.86H27.3725V16.494H26.7725ZM27.0725 19.16H28.6965V18.56H27.0725V19.16ZM28.6965 19.16C29.3293 19.16 29.8818 19.3068 30.3628 19.5936L30.6702 19.0784C30.0871 18.7306 29.4263 18.56 28.6965 18.56V19.16ZM30.3681 19.5967C30.8626 19.8781 31.2484 20.2639 31.5297 20.7584L32.0512 20.4616C31.7165 19.8734 31.253 19.4099 30.6648 19.0753L30.3681 19.5967ZM31.5328 20.7637C31.8197 21.2447 31.9665 21.7972 31.9665 22.43H32.5665C32.5665 21.7001 32.3959 21.0393 32.0481 20.4563L31.5328 20.7637ZM31.9665 22.43C31.9665 23.0526 31.8201 23.6062 31.5317 24.0983L32.0493 24.4017C32.3955 23.8111 32.5665 23.1514 32.5665 22.43H31.9665ZM31.5297 24.1016C31.248 24.5969 30.861 24.9883 30.3648 25.2792L30.6682 25.7968C31.2546 25.4531 31.717 24.9858 32.0512 24.3984L31.5297 24.1016ZM30.3662 25.2784C29.8847 25.5571 29.3309 25.7 28.6965 25.7V26.3C29.4247 26.3 30.0843 26.1349 30.6668 25.7976L30.3662 25.2784Z" fill="white" mask="url(#path-12-outside-1_207_37711)"/>
</svg>
